<?xml version="1.0" standalone="no"?>
<!DOCTYPE svg PUBLIC "-//W3C//DTD SVG 20010904//EN"
 "http://www.w3.org/TR/2001/REC-SVG-20010904/DTD/svg10.dtd">
<svg version="1.0" xmlns="http://www.w3.org/2000/svg"
 width="800.000000pt" height="800.000000pt" viewBox="0 0 800.000000 800.000000"
 preserveAspectRatio="xMidYMid meet">
<metadata>
Created by potrace 1.14, written by Peter Selinger 2001-2017
</metadata>
<g transform="translate(0.000000,800.000000) scale(0.100000,-0.100000)"
fill="#000000" stroke="none">
<path d="M889 7313 c-32 -84 -469 -1360 -469 -1371 0 -21 610 -730 633 -736
12 -3 39 -6 59 -6 66 0 68 -3 68 -95 0 -134 -25 -221 -278 -955 -34 -96 -70
-212 -82 -258 -62 -246 -65 -510 -10 -779 66 -320 224 -568 518 -813 l91 -75
0 -231 1 -231 -122 -6 c-66 -4 -291 -7 -498 -7 -207 0 -472 -3 -588 -7 l-212
-6 0 -25 0 -24 493 6 c270 3 590 9 710 12 l217 6 0 -152 c0 -161 7 -193 52
-224 14 -10 44 -16 76 -16 38 0 102 -17 230 -59 294 -99 522 -141 897 -166
1032 -69 3215 -127 3580 -96 396 34 708 97 1135 231 261 81 327 112 352 161
61 124 10 282 -104 320 -40 13 -31 14 160 17 l202 2 0 25 0 25 -381 0 -382 0
-39 36 c-56 50 -108 70 -278 104 -246 50 -365 96 -497 194 -87 64 -87 86 2
199 114 142 204 353 259 600 41 184 50 299 40 512 -11 240 -10 543 2 555 5 5
67 -28 149 -80 153 -98 185 -107 229 -68 14 13 109 156 211 318 161 257 185
300 185 336 0 31 -6 46 -27 66 -16 14 -136 90 -268 168 -201 120 -247 144
-281 144 -22 1 -47 -4 -55 -11 -8 -7 -59 -81 -112 -166 l-98 -154 -56 -6
c-141 -15 -316 -151 -400 -313 -23 -43 -54 -113 -71 -154 -16 -41 -33 -84 -37
-95 -6 -14 -11 8 -15 72 -9 148 -19 153 -332 153 l-216 0 -6 28 c-11 52 -45
267 -51 322 l-7 55 38 20 c68 37 122 100 144 171 11 35 33 81 49 102 17 20 42
65 56 100 99 244 13 521 -181 578 -35 10 -66 26 -77 41 -29 36 -92 64 -152 66
l-54 2 -7 55 c-58 501 -383 910 -843 1059 -120 40 -217 54 -356 54 -331 -1
-628 -121 -866 -351 -211 -203 -323 -416 -373 -710 -8 -46 -16 -85 -19 -88 -2
-2 -16 0 -31 6 -42 15 -76 12 -131 -14 -59 -27 -111 -81 -157 -165 -23 -42
-39 -61 -52 -61 -66 0 -160 -83 -204 -179 -49 -107 -26 -280 49 -365 22 -26
31 -49 39 -105 20 -140 82 -211 185 -211 25 0 45 -1 45 -3 0 -4 -46 -136 -55
-159 -7 -17 -35 -18 -396 -18 l-389 0 0 33 c0 17 13 138 29 267 45 358 54 478
48 633 -6 155 -22 231 -66 319 l-29 56 114 424 c63 232 114 428 114 435 0 12
-763 704 -777 704 -4 0 -21 -40 -38 -90 l-30 -90 -97 116 -98 115 -11 -29z
m252 -358 c106 -126 213 -254 237 -283 l45 -53 -199 -654 c-109 -360 -202
-655 -206 -655 -8 0 -531 615 -537 632 -2 5 95 295 215 644 205 597 219 633
235 617 9 -10 103 -121 210 -248z m656 -322 c-2 -1 -320 24 -323 26 -3 1 -305
361 -326 387 -16 20 -16 24 4 86 l21 65 313 -281 c172 -154 312 -282 311 -283z
m2414 117 c249 -29 469 -138 654 -324 140 -140 235 -298 288 -476 41 -136 42
-164 3 -72 -44 105 -93 193 -150 268 -45 60 -163 178 -225 226 -32 24 -34 29
-23 53 16 36 15 45 -6 45 -10 0 -24 -11 -31 -24 l-13 -24 -34 20 c-29 17 -32
23 -23 40 16 31 -5 47 -31 23 -17 -15 -24 -16 -50 -5 -19 8 -30 20 -30 32 0
17 -6 19 -37 17 -21 -2 -52 0 -70 5 l-32 7 21 21 c14 14 17 23 9 31 -8 8 -23
5 -53 -9 -38 -18 -49 -19 -93 -9 -46 10 -48 12 -28 23 12 7 29 12 37 12 9 0
16 5 16 10 0 15 -22 12 -63 -10 -34 -18 -49 -20 -145 -14 -264 16 -548 -57
-762 -197 -118 -77 -198 -154 -271 -262 -79 -117 -88 -127 -51 -52 43 86 123
195 205 282 254 267 627 404 988 363z m-2534 -362 c-2 -7 -38 -131 -78 -275
l-74 -263 -57 0 c-32 0 -58 4 -58 9 0 8 61 214 131 444 l30 97 55 0 c41 0 55
-3 51 -12z m2549 -13 c379 -67 663 -290 863 -680 137 -266 202 -516 256 -985
13 -118 37 -293 52 -388 24 -152 25 -176 13 -195 -8 -12 -17 -42 -20 -67 -5
-45 -5 -45 -51 -51 -58 -9 -92 -30 -121 -78 -21 -33 -23 -47 -23 -192 0 -152
1 -156 27 -196 29 -44 79 -73 127 -73 35 0 37 -3 45 -72 l6 -48 -140 0 -140 0
0 38 c0 60 -27 150 -60 197 -82 120 -303 133 -465 27 -33 -21 -77 -58 -98 -81
-40 -44 -87 -133 -87 -163 0 -17 -25 -18 -380 -18 -209 0 -380 2 -380 5 0 2
18 44 40 91 22 48 40 91 40 95 0 5 -149 10 -331 11 l-331 3 -149 394 c-89 236
-157 404 -171 419 -33 35 -79 52 -143 52 -30 0 -55 1 -55 3 0 2 16 50 35 108
20 57 67 224 106 371 62 241 101 373 157 544 21 63 116 282 164 377 75 149
182 288 280 362 121 92 315 167 501 194 105 15 336 12 433 -4z m-2594 -692
c30 -34 59 -104 75 -181 23 -110 13 -423 -22 -677 -14 -104 -30 -236 -37 -292
l-11 -103 -119 0 c-80 0 -130 -5 -153 -14 -35 -15 -65 -59 -65 -97 0 -13 66
-198 146 -413 109 -294 158 -411 195 -471 l49 -80 -182 -5 c-199 -5 -216 -10
-248 -63 -17 -28 -20 -51 -20 -172 0 -121 3 -144 20 -172 23 -38 67 -63 110
-63 l30 0 0 -285 c0 -157 -4 -285 -9 -285 -17 0 -219 201 -282 279 -179 227
-265 488 -276 838 -9 300 13 418 148 779 131 354 165 454 209 609 47 169 59
249 60 395 0 148 0 147 88 187 137 62 195 121 244 248 11 30 24 55 28 55 4 0
14 -8 22 -17z m1151 -55 c14 -11 22 -74 18 -134 -1 -8 -16 -10 -45 -7 -78 9
-188 -56 -259 -152 -39 -54 -30 -19 29 100 48 99 91 158 138 186 36 22 95 25
119 7z m-1355 -41 c4 -35 -22 -77 -48 -77 -16 0 -20 7 -20 37 0 65 61 101 68
40z m3978 4 c43 -26 79 -76 108 -148 31 -74 63 -201 71 -273 l5 -55 -20 54
c-37 101 -117 256 -154 297 -19 23 -56 50 -81 60 -40 17 -45 22 -45 52 0 31 1
32 43 32 24 0 56 -8 73 -19z m196 -94 c96 -73 134 -175 126 -339 -4 -66 -12
-111 -29 -153 l-24 -60 -6 107 c-11 159 -50 321 -105 431 -14 26 -20 47 -15
47 5 0 29 -15 53 -33z m-3177 -124 c-28 -71 -76 -229 -85 -283 -6 -36 -14 -76
-16 -90 l-6 -25 -13 25 c-21 39 -38 152 -31 203 4 26 21 67 39 94 43 64 131
123 112 76z m4764 -719 c210 -131 251 -160 251 -179 0 -20 -327 -559 -368
-607 -8 -10 -21 -18 -29 -18 -13 0 -275 161 -300 184 -8 8 -4 35 17 109 15 54
30 100 33 103 3 3 71 -36 152 -87 82 -51 150 -88 154 -82 60 91 241 383 241
389 0 10 -384 254 -399 254 -5 0 -39 -49 -77 -109 -37 -60 -72 -107 -78 -105
-6 2 -23 8 -38 13 l-28 10 62 98 c97 156 118 183 137 183 10 0 132 -70 270
-156z m-432 -196 c18 -7 33 -15 33 -18 0 -3 -20 -56 -45 -118 -25 -62 -56
-156 -70 -210 -44 -179 -48 -233 -41 -587 5 -219 4 -362 -4 -425 -31 -270
-104 -494 -216 -660 -26 -38 -48 -70 -50 -70 -2 0 -4 117 -4 260 l0 260 46 0
c40 0 51 5 85 39 l39 39 0 148 c0 235 -11 244 -286 244 l-176 0 7 23 c5 12 11
117 14 232 l6 210 63 149 c80 189 100 227 155 303 88 119 217 192 341 193 38
0 85 -5 103 -12z m-746 -357 c18 -22 19 -43 19 -356 0 -321 -1 -333 -21 -359
l-20 -26 -253 0 c-244 0 -254 1 -272 21 -18 20 -19 41 -19 366 l0 345 24 19
c23 19 39 20 274 17 248 -3 249 -3 268 -27z m-3816 -167 c8 -20 15 -40 15 -45
0 -14 -156 -11 -167 4 -6 6 -15 27 -21 45 l-11 32 84 0 85 0 15 -36z m3193
-21 c3 -39 1 -43 -20 -43 -13 0 -34 -7 -46 -16 -20 -14 -22 -23 -22 -116 0
-113 11 -138 62 -138 25 0 28 -3 28 -35 0 -32 -2 -35 -30 -35 -42 0 -84 23
-98 55 -16 36 -16 282 1 315 14 29 73 62 102 58 16 -2 21 -12 23 -45z m-8
-173 c0 -47 -4 -80 -10 -80 -6 0 -10 33 -10 80 0 47 4 80 10 80 6 0 10 -33 10
-80z m-506 -109 c3 -5 -7 -14 -23 -20 -61 -26 -135 -128 -147 -203 l-7 -38
-63 0 -64 0 21 42 c12 23 46 68 77 100 58 62 62 79 12 58 -45 -19 -119 -106
-133 -157 -11 -41 -13 -43 -49 -43 l-37 0 11 33 c26 77 116 166 204 203 68 29
187 44 198 25z m1559 -340 c39 -15 49 -56 45 -191 -3 -114 -5 -123 -27 -141
-23 -19 -78 -19 -2563 -19 l-2539 0 -24 25 c-24 23 -25 29 -25 155 0 126 1
132 25 155 l24 25 2530 0 c1507 0 2539 -4 2554 -9z m-593 -561 l80 -160 0
-369 0 -369 -92 30 c-356 114 -624 302 -683 478 -12 37 -21 50 -33 48 -29 -5
-26 -63 6 -133 82 -174 395 -379 728 -475 175 -50 241 -95 251 -169 7 -50 -24
-107 -92 -170 -52 -48 -115 -79 -225 -110 -128 -35 -212 -43 -345 -31 -317 30
-647 121 -910 253 -66 33 -351 192 -364 203 -2 2 11 25 28 52 34 54 39 77 16
86 -10 3 -26 -13 -51 -50 -122 -184 -428 -341 -732 -375 -90 -10 -422 2 -479
17 l-23 6 0 262 0 262 69 56 c74 60 140 137 171 199 16 31 17 39 6 48 -11 9
-37 -10 -125 -94 -61 -58 -114 -105 -116 -105 -3 0 -5 173 -5 385 l0 385 1420
0 1420 0 80 -160z m80 123 c0 -29 -2 -29 -19 5 -10 18 -9 22 4 22 10 0 15 -9
15 -27z m-3230 -68 c60 -31 60 -32 60 -352 l0 -293 -450 0 -450 0 0 325 0 325
233 3 c127 1 310 3 405 5 137 2 179 -1 202 -13z m-1072 -29 c25 -25 31 -155
31 -696 1 -497 0 -517 -20 -560 -21 -47 -95 -130 -115 -130 -7 0 -20 7 -28 16
-14 14 -16 91 -16 704 0 519 3 689 12 692 23 8 121 -11 136 -26z m4501 11 c38
-19 64 -62 63 -103 -1 -21 5 -42 14 -51 13 -14 15 -70 10 -462 -2 -245 -8
-461 -12 -478 l-6 -33 -28 44 c-29 45 -98 99 -150 118 l-30 10 0 484 0 484 58
0 c31 0 68 -6 81 -13z m-3369 -959 c0 -306 -2 -316 -75 -397 l-37 -41 -376 0
c-335 0 -377 2 -394 17 -17 15 -18 39 -18 355 l0 338 450 0 450 0 0 -272z
m3682 172 c101 -64 246 -115 434 -153 222 -45 267 -68 293 -148 40 -124 -95
-183 -444 -196 -165 -6 -206 -2 -317 28 l-38 10 0 249 c0 138 2 250 5 250 2 0
33 -18 67 -40z"/>
<path d="M945 5611 c-3 -5 -1 -12 5 -16 12 -7 30 2 30 16 0 12 -27 12 -35 0z"/>
<path d="M1030 5595 c0 -8 7 -15 15 -15 8 0 15 7 15 15 0 8 -7 15 -15 15 -8 0
-15 -7 -15 -15z"/>
<path d="M937 5506 c-10 -26 4 -47 27 -44 15 2 21 10 21 28 0 29 -38 41 -48
16z"/>
<path d="M4716 6002 c-3 -6 -1 -14 5 -17 15 -10 25 3 12 16 -7 7 -13 7 -17 1z"/>
<path d="M3892 5800 c-299 -79 -529 -347 -603 -702 -29 -141 -23 -338 14 -479
78 -297 271 -523 531 -622 78 -30 87 -32 231 -32 144 0 153 2 233 32 114 44
195 95 278 178 121 119 207 272 256 453 29 110 36 336 14 455 -68 362 -304
638 -612 717 -101 26 -242 26 -342 0z m322 -60 c281 -72 493 -321 562 -660 22
-113 15 -331 -15 -445 -104 -391 -436 -652 -771 -605 -295 40 -523 262 -622
607 -20 68 -23 101 -23 253 0 152 3 186 23 259 118 430 481 684 846 591z"/>
<path d="M3972 5409 c-67 -13 -156 -66 -216 -128 -97 -102 -146 -232 -146
-386 0 -157 50 -285 151 -391 168 -174 409 -176 579 -4 63 64 111 153 136 251
25 96 15 262 -19 352 -86 224 -281 347 -485 306z m222 -88 c215 -106 304 -415
190 -658 -36 -75 -123 -166 -192 -200 -49 -24 -69 -28 -142 -28 -74 0 -92 4
-143 29 -103 52 -195 175 -226 300 -7 27 -12 86 -12 131 0 98 14 159 53 238
98 197 295 276 472 188z"/>
<path d="M3965 5171 c-56 -25 -104 -76 -134 -141 -21 -45 -25 -70 -25 -135 0
-127 52 -222 146 -269 166 -83 341 51 342 264 1 41 -2 83 -7 94 -7 17 -9 17
-34 -8 -42 -42 -95 -39 -140 9 -28 29 -33 42 -33 82 0 30 7 60 19 80 17 27 18
32 5 37 -30 12 -100 5 -139 -13z"/>
<path d="M5267 4463 c-13 -12 -7 -23 13 -23 11 0 20 7 20 15 0 15 -21 21 -33
8z"/>
<path d="M5160 4415 c0 -8 7 -15 15 -15 8 0 15 7 15 15 0 8 -7 15 -15 15 -8 0
-15 -7 -15 -15z"/>
<path d="M5220 4346 c0 -9 5 -16 10 -16 6 0 10 4 10 9 0 6 -4 13 -10 16 -5 3
-10 -1 -10 -9z"/>
<path d="M1046 3995 c-3 -9 1 -18 10 -22 19 -7 28 2 21 22 -8 19 -23 19 -31 0z"/>
<path d="M930 3686 c0 -8 5 -18 10 -21 6 -3 10 3 10 14 0 12 -4 21 -10 21 -5
0 -10 -6 -10 -14z"/>
<path d="M1020 3680 c0 -5 5 -10 10 -10 6 0 10 5 10 10 0 6 -4 10 -10 10 -5 0
-10 -4 -10 -10z"/>
<path d="M930 3580 c0 -5 5 -10 10 -10 6 0 10 5 10 10 0 6 -4 10 -10 10 -5 0
-10 -4 -10 -10z"/>
<path d="M5632 2653 c2 -10 10 -18 18 -18 22 0 18 29 -3 33 -14 3 -18 -1 -15
-15z"/>
<path d="M3050 1790 c0 -5 5 -10 10 -10 6 0 10 5 10 10 0 6 -4 10 -10 10 -5 0
-10 -4 -10 -10z"/>
<path d="M4474 1746 c-10 -26 3 -45 26 -39 14 4 20 12 18 27 -4 25 -36 34 -44
12z"/>
<path d="M4570 1675 c0 -8 7 -15 15 -15 8 0 15 7 15 15 0 8 -7 15 -15 15 -8 0
-15 -7 -15 -15z"/>
<path d="M2060 2600 c-16 -16 -20 -33 -20 -90 0 -78 19 -110 65 -110 14 0 38
-9 53 -19 51 -37 263 -52 441 -31 112 13 131 29 131 115 0 60 -18 105 -42 105
-6 0 -21 11 -34 25 l-23 25 -276 0 c-262 0 -276 -1 -295 -20z m550 -55 c0 -13
-35 -15 -255 -15 -220 0 -255 2 -255 15 0 13 35 15 255 15 220 0 255 -2 255
-15z"/>
<path d="M2057 1822 c-12 -13 -17 -37 -17 -86 0 -85 10 -104 60 -112 22 -4 40
-10 40 -15 0 -5 15 -16 33 -26 28 -16 60 -18 257 -18 259 0 284 6 296 71 13
70 0 112 -51 160 l-47 44 -277 0 c-257 0 -279 -1 -294 -18z m553 -57 c0 -13
-35 -15 -255 -15 -220 0 -255 2 -255 15 0 13 35 15 255 15 220 0 255 -2 255
-15z"/>
<path d="M6554 1669 c-10 -17 13 -36 27 -22 12 12 4 33 -11 33 -5 0 -12 -5
-16 -11z"/>
<path d="M6485 1650 c-3 -5 -1 -10 4 -10 6 0 11 5 11 10 0 6 -2 10 -4 10 -3 0
-8 -4 -11 -10z"/>
<path d="M6620 1570 c0 -5 5 -10 10 -10 6 0 10 5 10 10 0 6 -4 10 -10 10 -5 0
-10 -4 -10 -10z"/>
<path d="M1013 974 c-3 -8 -1 -20 6 -27 14 -14 47 15 37 32 -10 16 -36 13 -43
-5z"/>
<path d="M6955 920 c-8 -14 3 -30 21 -30 8 0 14 9 14 20 0 21 -24 28 -35 10z"/>
<path d="M1162 874 c2 -11 11 -20 22 -22 13 -3 17 1 14 14 -2 11 -11 20 -22
22 -13 3 -17 -1 -14 -14z"/>
<path d="M930 792 c0 -15 5 -19 20 -15 24 6 21 26 -3 31 -11 2 -17 -3 -17 -16z"/>
<path d="M7037 804 c-4 -4 -7 -18 -7 -31 0 -20 5 -24 23 -21 16 2 22 10 22 28
0 24 -23 39 -38 24z"/>
<path d="M1223 755 c-7 -20 2 -29 21 -22 9 4 13 13 10 22 -8 19 -23 19 -31 0z"/>
<path d="M6834 695 c-8 -20 4 -35 27 -35 14 0 19 7 19 25 0 18 -5 25 -20 25
-11 0 -23 -7 -26 -15z"/>
</g>
</svg>
