<?xml version="1.0" encoding="UTF-8"?>
<svg id="Calque_1" data-name="Calque 1" xmlns="http://www.w3.org/2000/svg" version="1.1" xmlns:xlink="http://www.w3.org/1999/xlink" viewBox="0 0 473.4 420.2">
  <defs>
    <style>
      .cls-1 {
        stroke: #000;
        stroke-miterlimit: 10;
        stroke-width: 2px;
      }

      .cls-1, .cls-2 {
        fill: none;
      }

      .cls-3 {
        fill: #000;
      }

      .cls-3, .cls-4, .cls-5, .cls-6, .cls-7, .cls-2, .cls-8, .cls-9, .cls-10, .cls-11, .cls-12, .cls-13, .cls-14, .cls-15, .cls-16, .cls-17 {
        stroke-width: 0px;
      }

      .cls-4 {
        fill: #caffc8;
      }

      .cls-5 {
        fill: #73c38c;
      }

      .cls-6 {
        fill: #6c5caa;
      }

      .cls-7, .cls-9 {
        fill: #ff7b9c;
      }

      .cls-8 {
        fill: #4e609f;
      }

      .cls-9 {
        isolation: isolate;
      }

      .cls-10 {
        fill: url(#Dégradé_sans_nom_2);
      }

      .cls-18 {
        clip-path: url(#clippath);
      }

      .cls-11 {
        fill: #fdfffa;
      }

      .cls-12 {
        fill: #3e4d7e;
      }

      .cls-13 {
        fill: #90f4af;
      }

      .cls-14 {
        fill: #907be3;
      }

      .cls-15 {
        fill: url(#Dégradé_sans_nom);
      }

      .cls-16 {
        fill: #fff;
      }

      .cls-17 {
        fill: #ffa4d0;
      }
    </style>
    <clipPath id="clippath">
      <circle class="cls-2" cx="237.8" cy="200.1" r="184.8"/>
    </clipPath>
    <radialGradient id="Dégradé_sans_nom" data-name="Dégradé sans nom" cx="49.9" cy="-330.8" fx="49.9" fy="-330.8" r="488.1" gradientTransform="translate(2.8 -35.5) rotate(-.8) scale(1 -.7)" gradientUnits="userSpaceOnUse">
      <stop offset=".6" stop-color="#fdfffa"/>
      <stop offset=".8" stop-color="#dbffd8"/>
      <stop offset="1" stop-color="#caffc8"/>
    </radialGradient>
    <linearGradient id="Dégradé_sans_nom_2" data-name="Dégradé sans nom 2" x1="214.7" y1="537.2" x2="353.3" y2="582.3" gradientTransform="translate(0 -174)" gradientUnits="userSpaceOnUse">
      <stop offset="0" stop-color="#4e609f"/>
      <stop offset="1" stop-color="#3e4d7e"/>
    </linearGradient>
  </defs>
  <g class="cls-18">
    <g>
      <rect class="cls-11" x="19.8" y="0" width="434.5" height="371.6"/>
      <rect class="cls-15" x="39.7" y="1.5" width="421.5" height="341.8"/>
      <path class="cls-10" d="M454.8,315.9v109.4H19.8v-105.7c47.5-2,73.8-2.1,123-3.6,47-1.5,95.7,0,142.8,0s114.8-2,169.1,0h.1,0Z"/>
      <path class="cls-14" d="M289.8,162.6c0,1.3-.3,2.4-.4,3.3-.3-1.1-.7-2-.9-3-.7-2.1-1.3-4.1-2.3-6.1,0-.1-.1-.4-.3-.5-.3-.5-.4-1.1-.7-1.5-.4-.9-.8-1.7-1.2-2.5-4.2-8.7-10.2-16.7-18.3-22.1-9.7-6.4-21.1-8.6-32.4-7.5-9.8.9-19.9,3.8-27.1,10.7-3.8,3.7-6.5,8.1-9,12.7-.1.4-.4.8-.5,1.1.2-.2.3-.5.5-.7-1.1,2.6-5.8,14.1-6.8,17.6h-.5v-9.5c0-.5,0-1.1.1-1.6.4-3.3,1-6.8,1.9-10.1s2-6.4,3.3-8.9c9.8-18.3,26.6-27.7,45-28.2,16.6-.4,36.8,9.3,45.7,31.4,1.7,4.4,2.9,10.3,3.4,15.9v9.9l.4-.3h0Z"/>
      <path class="cls-17" d="M355,202.7c-.4-.3-.9-.5-1.3-.7-1.1-.5-2.3-.9-3.4-1.1-.4,0-.8,0-1.1-.1h-1.5c-7.7.3-14.7,7.3-17.9,13.8-2,4.2-3.4,8.7-5.4,13.1-.3.7-.7,1.3-.9,2h0v.3c-.3.7-.7,1.2-.9,1.7,0,0-.1.3-.3.4-1.6,2.4-7.4,8.5-11.4,12.4h0c-1.2,1.2-2.1,2.1-2.8,2.9-.3.3-.4.5-.7.7v5.2h0v4.9h0v7.8c-.1,0-.1,1.2-.1,1.2v1.1h4.5c.8,1.7,1.7,3.6,2.6,5.3,1.2,2.4,2.4,4.8,3.7,7.2v5.8c.3.4.7.7.9,1.1,0,.1.3.3.4.4.3.3.5.5.8.9,3,3.2,6.1,6.4,9,9.9,0,0,.1.3.3.3.1.1.3.4.4.5.1.3.4.4.5.7.3-.4.7-.8.9-1.1.4-.4.7-.9,1.1-1.3.4-.5.9-1.1,1.3-1.6l.3-.3c.3-.4.5-.7.9-1.1v-.3c.5-.4.9-.9,1.3-1.3,2.9-3.6,5.4-7.2,7.5-12.1,5.2-13,7-26.1,5.7-40.1-.7-6.8-.5-13,.5-19.1,0-.4.1-.8.3-1.2v-1.2c.7-3,1.5-6,2.6-9,.9-2.5,2-4.9,3.2-7.4-.3-.1-.5-.4-.8-.5h-.4.2,0ZM351.4,210c-1.2,2.9-2.1,5.8-2.8,8.9,0,.4-.1.8-.3,1.2,0,.4-.1.8-.3,1.2v.3c-1.2,6.6-1.3,13.2-.8,19.9.9,10.3.3,21.1-2.5,31h0c-2.1,6.4-5.3,12.3-9,18v-22.2h1.9c2.8,0,5.2-2.3,5.2-5.2v-8.9c0-2.8-2.3-5.2-5.2-5.2h-7.9c3.2-4.9,6.1-10.2,7.5-16.2,1.3-5.3,2-11,3.8-16.3.1-.4.3-.9.5-1.3,0,0,0-.3.1-.3.3-.5.5-1.2.8-1.7h0c0-.1,2.4-4,2.4-4,2-2.6,4.6-4.8,7.7-5.7h.3c.4.1.7.3,1.1.5-.9,2-1.9,4.1-2.6,6.2v-.3h0Z"/>
      <path class="cls-17" d="M305.8,250.9c0-.4-.1-.7-.3-1.1,0-.3-.1-.7-.3-.9v-.3c-1.6-6.4-2.9-12.8-4.2-19.2-.9-4.2-1.7-8.5-2.5-12.6,0-.3,0-.5-.1-.9,0-.5-.1-.9-.3-1.3-.9-5.3-1.7-10.7-2.4-16.2,0-.4,0-.8-.1-1.1v-.5c0-.4,0-.9-.1-1.3-.1-1.2-.3-2.4-.4-3.6-.9-8.7-2.5-18.1-5-27.1-.3-.8-.4-1.6-.7-2.3-.4-1.5-.9-2.9-1.5-4.2-.3-.9-.7-1.7-1.1-2.5,0-.3-.3-.7-.4-.9-.1-.4-.4-.9-.5-1.3,0-.3-.3-.5-.4-.8-6-13-14.6-23.3-28.3-28.7-10.6-4.1-22.5-4.1-33.4-1.6-11.1,2.6-19.6,7.9-25.7,18.1-2.5,4.4-4.8,8.9-6.8,13.4-.1.3-.3.5-.4.9,0,0,0,.3-.1.4-.1.4-.3.7-.4,1.1,0,.3-.3.5-.4.9-.3.8-.5,1.3-.8,2.1s-.5,1.6-.8,2.3-.4,1.2-.7,1.9c-.5,1.6-1.1,3.3-1.6,4.9-2.1,6.8-3.6,13.4-5.2,19.7-.5,2.3-1.2,4.5-1.9,6.8,0,.3-.1.7-.3.9,0,.3-.1.5-.3.8-.8,2.6-1.7,5.2-2.8,7.8-.1.4-.3.8-.5,1.2-.1.4-.4.8-.5,1.2-.3.5-.4.9-.7,1.5-1.1,2.3-2.4,4.6-3.7,6.9v1.1l1.3,24.2v2.1l.4,6.1v2.1l.4,8.1v.2l101.4-1,33.8-1.1c-.4-1.3-.9-2.6-1.3-3.9-.3-.8-.4-1.6-.7-2.3h.3Z"/>
      <path class="cls-17" d="M125.9,207.2l1.2-3.4,8.3-7.5,1.5-19.9-11.3-5.7s-1.6-.4-3.4-.8v2.7c0,2.9.3,5.8-.4,8.2-7.8,31.8-17.5,41.8-16.8,63.8.4,11.9,3.2,24.8,10.1,34.4,2.8,4,9,10.7,15.2,15.5.2.2.4.3.6.5l-.5-2.3-.3-1.3-2.8-15.7-3.9-7.3-1.3-9.6-.4-12.5,4.1-24.3.4-14.9h-.3,0Z"/>
      <g id="ombre_pieuvre" data-name="ombre pieuvre">
        <path class="cls-7" d="M141.2,205c.1-2.2.8-8.9,1.1-12.2l.3-2.2c1-7.6,2-15.4,2-23.3-.2-5.2-.5-10.7-3-14.9-.2-.4-.5-.8-.7-1.1,0-.1-.2-.2-.3-.4-.3-.5-.8-.9-1.1-1.2l-1.5-1.5-.6,1.7c-.9,2.5-1.9,5-3.3,7.2-1.3,2.1-3.1,3.5-5.9,4.7-.4.2-.8.3-1.3.5-.9.3-1.8.7-2.6,1.2-1.4.9-1.8,2.4-2.1,3.5v.2c-.2.9-.2,1.7-.2,2.6v1.4l.6.3s0,.1.2.2c.2.1.3.2.5.3h.2c.4.4.7.7,1.1,1l.3.3c3.3,3,3,10.8,2.4,16.4-.3,3.1-1.7,9.1-3.3,16-3,12.8-6.8,28.7-6.8,39.8,0,18.4,4.4,37.6,10.7,46.7l.2.3h.3c0,.2.2.3.3.4.4.5.9,1.2,1,1.2l1.7,1.5.3-28.3,12.7-17.5s-5-15.9-3.2-44.7h0Z"/>
        <path class="cls-9" d="M354.1,203.8c-.9,2-1.9,4.1-2.6,6.2-1.2,2.9-2.1,5.8-2.8,8.9,0,.4-.1.8-.3,1.2,0,.4-.1.8-.3,1.2v.3c-1.2,6.6-1.3,13.2-.8,19.9.9,10.3.3,21.1-2.5,31h0c-2.1,6.4-5.3,12.3-9,18v-22.2h1.9c2.8,0,5.2-2.3,5.2-5.2v-8.9c0-2.8-2.3-5.2-5.2-5.2h-7.9c3.2-4.9,6.1-10.2,7.5-16.2,1.3-5.3,2-11,3.8-16.3.1-.4.3-.9.5-1.3,0,0,0-.3.1-.3.3-.5.5-1.2.8-1.7h0c0-.1,2.4-4,2.4-4,2-2.6,4.6-4.8,7.7-5.7h.3c.4.1.7.3,1.1.5v-.3h0Z"/>
        <path class="cls-7" d="M241.8,314.5s-.1.1-.2.2-.3.3-.4.4c.2-.2.4-.5.6-.6h0Z"/>
        <path class="cls-7" d="M241.2,126.4c-11.4-.8-30.4.4-45.2,20,.1-.3.4-.7.5-1.1,2.5-4.6,5.2-9,9-12.7,7.3-6.9,18.4-10.6,28.2-11.6,1.3,0,2.7-.2,4-.2h1c9.7,0,19,3.7,27.2,9.2,8.1,5.4,14,13.4,18.3,22.1.4.8.8,1.6,1.2,2.5.3.4.4.9.7,1.5.1.1.3.4.3.5.9,2,1.6,4,2.3,6.1.3,1.1.7,2,.9,3,.1.5.4.9.4,1.3,1.6,6,2.6,12.2,3.6,18.4.4,3.6.8,7.2,1.2,10.7.3.5.3,1.2.3,1.7v1.1c.3,1.7.4,3.3.7,4.9.7,3.7,1.2,7.5,1.9,11.4,0,0-.2.2-.3.3l1,2.1,1,2.1s3.1,24.3,3.7,28.1v.8c0,.6-.1,1.4-.3,2.4-.5,3.5-1.7,9.2-3.1,14.8-.2.8-.3,1.5-.5,2.3h-52.7c.1-.7.3-1.5.4-2.3,1-5.3,2.6-11.1,3.7-15,.2-.7.4-1.4.6-2,0-.2.1-.5.2-.7.3-1,.5-2.1.8-3.2,1.5-7,2-14.8,1-21.9-.3-1.2-.3-2.3-.3-3.3,11.4-6,19.5-19.5,19.5-35.2s-1.3-12.2-3.6-17.5c-3.4-7.9-9-14.2-15.9-17.7-.1-1.9.1-3.7.4-5.6.4-3.4.3-7-.4-10.5-.3-1.2-1.1-2.9-1.7-4.6-3.6-1.3-7-2.1-9.9-2.4v.2h-.1Z"/>
      </g>
      <path class="cls-13" d="M172.5,186c-6.2-.7-8.2-9.4-7.4-14.6.5-3.2,3.2-6.9,6.1-8.5,3.4-1.9,6.8-.3,10.3-.7l-9,23.7h0Z"/>
      <path class="cls-13" d="M298.7,157.1c14.8-.3,16,23.8,5.2,30.5l-5.2-30.5Z"/>
      <path class="cls-14" d="M179.9,195.4c-20.1,6.2-7.8-33.8.4-40.9,4-3.4,10.8-1.2,11.5,1.2-6.6,11.7-11.9,39.7-11.9,39.7Z"/>
      <path class="cls-14" d="M305.8,180.6h0c0,1.3,0,2.8-.1,4,0,.7-.1,1.2-.3,1.9,0,.5-.1.9-.3,1.5v.8c-.8,3.7-3.6,5.8-6.6,7.5-.7.4-1.5.8-2.1,1.2-.4.1-.7.4-1.1.5,0,0-.3,0-.4.1,0-.5,0-1.2-.3-1.7-.4-3.6-.8-7.2-1.2-10.7-.9-6.2-2-12.4-3.6-18.4h0c0-.4-.3-.8-.4-1.3h0c-.3-1.1-.7-2-.9-3h0c-.7-2.1-1.3-4.1-2.3-6.1h0v-.9c0-.4.3-.7.8-.9.3-.3.7-.4,1.2-.5.1,0,.4,0,.5-.1h0c.3,0,.5-.1.9-.1s.9-.1,1.3-.1c1.6-.1,3.2,0,4.2.1,1.6.4,2.8,1.3,3.8,2.5.3.3.4.4.5.7s.3.4.5.7h0c1.3,2,2.3,4.2,2.9,6.1s1.3,4,1.7,6.1c.7,3.4,1.1,7,1.1,10.6h-.1l.3-.5h0Z"/>
      <path class="cls-6" d="M295.1,196.4c.4-.1.7-.3,1.1-.5.8-.4,1.5-.9,2.1-1.5,1.3-1.2,3.6-1.5,4.5-3.1l.8-.9c.7-1.1.7-2,1.1-3,0-.1-.4-1.7-.3-2.5.4-2.3,0-4.9-.4-7-.5-4-4-11.4-4.9-13.1s-3.3-5.4-6.1-6.4c-.7-.3-1.3-.3-2-.5-.3,0-.4-.1-.7-.3h0c-.3,0-.4-.3-.7-.4-.3-.3-.5-.5-.8-.8,0-.7-.1-1.3-.3-2.1,0-.3,0-.7-.1-.9v-.7h0c0-.3,0-.4-.1-.7-.3-1.1-.5-2-.8-3-1.9-6.2-5.3-13.6-10.7-19.5-2.6-2.9-5.6-5.4-8.7-7.5-.4-.3-.8-.5-1.3-.8-1.1-.7-2.1-1.3-3.2-1.9-.4-.3-.9-.4-1.3-.7-1.2-.7-2.4-1.2-3.7-1.6-.7-.3-1.3-.5-2.1-.8-1.3-.4-2.5-.8-3.8-1.2-.5,0-.9-.3-1.5-.4-1.6-.4-3.2-.7-4.9-.9h-.3c-8.1-1.1-16.4-.3-24.5,2.4-8.6,2.9-17.9,8.9-22.6,16.7-1.2,2.1-6.2,7.4-7.3,18.5h0c0,.5,0,1.1-.1,1.7v1.2h0c.1-.3.4-.5.5-.8,1.5-2.6,11.7-19.9,15.5-23.6,7.3-6.9,16.1-7.1,25.9-8,11.4-1.1,22.8,1.2,32.4,7.5,8.1,5.4,14,13.4,18.3,22.1.4.8.8,1.6,1.2,2.5h0c.3.5.4,1.1.7,1.6,0,.1.1.4.3.5h0c.8,2,1.6,4,2.3,6h0c.3,1.1.7,2.1.9,3h0c0,.4.3.9.4,1.3h0c1.6,6.1,2.8,12.2,3.6,18.4.4,3.6.8,7.2,1.2,10.7l.5,1.1v-.3.2h0Z"/>
      <path class="cls-14" d="M268,139.5c-.5,0-.5-.9,0-.9s.5.9,0,.9Z"/>
      <path class="cls-14" d="M150.2,114h0l-9.3,34.8-.3,1.1-2.5-1.2s-4.7,9.6-6.1,11.4c-1.4,1.8-6.8,3.6-8.6,3.9-1.5.3-2.1,3.7-2,7.3h-.8c0-.1-4.6-.7-4.6-.7h-1.2c0-.1-.7-1.1-.7-1.1l-24.2-28.5,19.2-56,8.2,9.7,2.8-8.1,29,26.2.9.8.3.3h0Z"/>
      <path class="cls-13" d="M380.7,203.4l-15.1,24c-.5.8-1.7,1.1-2.5.5l-7.7-4.9h0l-4.2-2.6c.7-3,1.5-6.1,2.5-9,.9-2.5,1.9-4.9,3-7.3.3-.7,0-1.3-.5-1.7,0,0-.3-.1-.4-.3-.5-.4-1.1-.7-1.7-.9-1.2-.5-2.3-.9-3.4-1.1l7-11.1c.3-.4.7-.8,1.2-.8s.9,0,1.3.3l19.9,12.4c.8.5,1.1,1.7.5,2.5h.1Z"/>
      <path class="cls-8" d="M376.8,202.4l-10.6,16.8-9.7-6.1-2.9-1.9-1.1-.7s1.4-5.1,2.3-7.2c-.4-.3-1.8-.9-1.9-.9l.5-.8.5-.8,5.8-9.3,16.8,10.6h.1l.2.3h0Z"/>
      <path class="cls-13" d="M318.7,215.4h-17.5c-2.6,0-4.6,2.1-4.6,4.6v2.6h-2.4c-3,0-5.6,2.5-5.6,5.6v8.9c0,3,2.5,5.6,5.6,5.6h2.4v2.5c0,2.6,2.1,4.6,4.6,4.6h17.5c2.6,0,4.6-2.1,4.6-4.6v-25.2c0-2.6-2.1-4.6-4.6-4.6h0ZM296.6,237.4h-2.1c-.9,0-1.6-.8-1.6-1.6v-5.8c0-.9.8-1.6,1.6-1.6h2.1v9h0Z"/>
      <path class="cls-8" d="M173.3,205.6h7.8c2.1,0,4,1.3,4.6,3.2l12.3,32.8h26.6l-3.8,8.1h-76.4l-5-8.1-11.8-31.7c-.8-2.1.8-4.5,3-4.5h44.2c2.4,0,4.5,1.5,5.4,3.8l11.5,32.3-18.5-36h0Z"/>
      <path class="cls-13" d="M163.4,227.7h-6.4c-.9,0-1.6-.5-2-1.3l-.9-2.6c-.3-.8.3-1.7,1.2-1.7h6.4c.9,0,1.6.5,2,1.3l.9,2.6c.3.8-.3,1.7-1.2,1.7Z"/>
      <ellipse class="cls-11" cx="239.9" cy="184.7" rx="31.3" ry="37.3"/>
      <path class="cls-4" d="M272.3,184.7c0,15.8-8.1,29.3-19.5,35.2v-1.3c0-.7.3-1.2.5-1.9.3-.8.7-1.6.9-2.4,6.5-14.8,7.8-31.9,4-47.7-.9-3.7-2.1-7.4-3.6-11-.4-1.2-.9-2.4-1.3-3.4-.1-.5-.3-.9-.4-1.5,0-.4-.1-.9-.3-1.3,6.9,3.6,12.4,9.8,15.9,17.7,2.3,5.3,3.6,11.1,3.6,17.5h.2Z"/>
      <ellipse class="cls-14" cx="239.9" cy="184.7" rx="17.3" ry="20.7"/>
      <path class="cls-13" d="M278.4,237.7c-9.1,1.2-10.5,8.7-10.5,11.7h-12.3c.3-7.3,8.9-13.9,17-13.4,2.4.1,3.2.3,5.8,1.7h0Z"/>
      <path class="cls-8" d="M282.8,249.2h-14.8c0-2.8,1.3-10.5,10.5-11.5,3.4,2.4,4.6,6.6,4.4,11.5h-.1Z"/>
      <path class="cls-7" d="M370.7,316.8c-.5-2.1-5.9-4.4-7.8-4.9s-14-3.3-15.9-3.8c-1.7-.4-8.9-4.4-11.4-5.8l-.4-.5-.4,22.4h0l1.2,1c.9.3,6.9,2.3,11.1,1.7,3-.4,6.1-.1,9-.4,3.4-.3,7-.8,10.3-2,1.2-.4,2.2-.9,2.9-1.6.4-.2.7-.4.8-.6,1-1.1,1.1-3.3.6-5.4h0Z"/>
      <path class="cls-7" d="M326.1,323.6c-.5,2.1-5.3,5.8-7.1,7.1-.4.3-.6.5-.7.5-4.6,2.8-10.1,3.9-15.7,3.9s-11.9-1.6-17.7-2.8c-6.8-1.5-13.4-3.4-19.7-6.1-5.7-2.4-11-5.3-16.3-8.5-.5-.3-1.1-.5-1.5-.8-1.2-.7-2.3-1.3-3.3-2l-1.5-.9h-.1c-.1,0-.2.2-.4.4-.2.1-.3.4-.6.6-.1.1-.3.3-.4.4h-.1c-.1.2-.2.3-.3.4-.2.2-.4.3-.6.5s-.4.3-.5.4c-3.8,3.2-8,6.4-12.6,8.1-4.1,1.5-8.7,3-12.9,3.3-3.4.3-7.1.2-10.4,0-3.4-.1-7.2-.1-10.6-.5-.1,0-.7-1.3-.8-1.3l-.7-22.2.3-37.2,120,1h7v46.4l-1.5-1c.1.1.7.5,1.5,1.1,2.4,1.7,6.6,4.6,6.6,4.6,1.6,2.2.8,4.3.8,4.4l-.2.2h0Z"/>
      <path class="cls-14" d="M334.7,263.4v66.3c0,1.5-1.2,2.8-2.8,2.8h-10.9c-.7,0-1.3-.5-1.7-1.1-.1-.2-.3-.5-.4-.7,1.8-1.3,6.6-5,7.1-7.1,0-.2.8-2.2-.8-4.4,0,0-4.2-2.9-6.6-4.6v-51.2h16.1,0Z"/>
      <g>
        <path class="cls-17" d="M326.1,318.3"/>
        <path class="cls-17" d="M324.7,319.1v.2c0,1-.6,2-1.2,2.8-.7.8-1.5,1.6-2.4,2.1-.4.3-.8.4-1.2.7-.4.3-.8.4-1.2.7-.3.1-.7.3-.9.5-2.1,1.1-4.9,2-8.9,2-11,0-24.5-6.5-29.7-11.4-.5-.5-1.1-1.1-1.3-1.6,0,0-.1-.3-.3-.4,0-.1-.1-.3-.3-.4-3.8-7.2.3-17.3,6.1-22.2,2.6,5.4,8.6,9.3,15.1,13,.7.4,1.3.8,2,1.1,5.3,2.9,10.9,5,14.6,6.1.8.3,1.7.5,2.6.8.3,0,.7.3.9.3.4.1.8.3,1.2.4.3,0,.5.3.9.4,1.1.5,2.1,1.1,3,1.7.3.1.4.4.7.5v2.8h.3,0Z"/>
      </g>
      <path class="cls-14" d="M147.2,267.1l-16,.2v62.4c0,1.6,1.3,2.8,2.8,2.8h10.5c1.6,0,2.8-1.3,2.8-2.8v-.7c.5,2,2.2,3.4,4.4,3.4h35.6c2.5,0,4.5-2,4.5-4.5v-60.9h-44.6,0Z"/>
      <rect class="cls-8" x="157.7" y="280.4" width="23.6" height="6.5" rx="1.2" ry="1.2"/>
      <rect class="cls-8" x="157.7" y="312.8" width="23.6" height="6.5" rx="1.2" ry="1.2"/>
      <rect class="cls-13" x="158.2" y="280.4" width="22.8" height="2.4"/>
      <rect class="cls-13" x="158.2" y="312.6" width="22.8" height="2.4"/>
      <polygon class="cls-5" points="135.9 120.7 128.5 146 135.8 146.3 143 121 135.9 120.7"/>
      <ellipse class="cls-5" cx="129.6" cy="157" rx="3.7" ry="2.5" transform="translate(-55.3 242.2) rotate(-75.2)"/>
      <path class="cls-5" d="M311.1,169.2c.3,2.3-.5,4.5-1.2,6.6-.9,2.9-2,6-4,8.2.1-5.2-1.6-10.6-1.1-15.6.4-4.5,5.8-3.3,6.2.7h.1Z"/>
      <path class="cls-6" d="M186.5,169.7c-2.1,8.1-4,16-7,23.7-.1.4-.8,2.3-1.2,2.5-.7.5-3.2.1-4-.4-3-1.9-3.8-6.6-4.2-10.3v-1.6s.9-10.1,3.7-14.3c1.2-2.2,2.5-4.1,4.2-5.7,1.6-1.6,7.4-5,9.7-3h-.1c2,1.7-.5,7-1.1,9.1h0Z"/>
      <path class="cls-5" d="M173.3,169.4c-1.1,1.8-2.9,6-3.3,14.2-.2.1-.5.3-.7.3-2.4-2.1-3.7-5.4-3.2-8.6.6-3.3,4.6-6.8,7.2-6h0Z"/>
      <path class="cls-5" d="M307.6,249.5c3.7.5,7.4.7,11.1,0,1.3-.1,2.8-.5,3.6-1.6.7-.8.7-1.9.8-2.9.4-8.3.5-16.7.3-25,0-1.3-.3-3-1.5-3.7-.5-.3-1.2-.3-1.9-.3h-8.1s.1,13.8.1,18.5c0,0-.5,11.3-4.5,15h.1Z"/>
      <path class="cls-12" d="M198.8,242c-4.9-11-7.8-22.9-13.2-33.8-.4-.7-.8-1.5-1.3-1.9-1.1-.9-3.4-1.3-4.8-.7-1.7.9-.5,2.1.3,3.4,2.1,3.6,3.3,7.5,4.5,11.7,2.3,7.3,4.6,14.6,7.5,21.7l3.4,7.4h25.4l3.8-8.2s-19.6.1-25.7.4h.1Z"/>
      <g>
        <path class="cls-6" d="M185.1,285.6c0,1.1,0,2.8-1.1,3.6-.5.5-1.5.7-2.1.8-6,.8-12.1.9-18,0-1.5-.1-3.3-.9-3.3-2.4s0-.5-.2-.6h20.9v-5c.2-.3.5-.5.8-.6.9-.4,2.1.3,2.5,1.2.4.9.5,2,.5,3h0Z"/>
        <path class="cls-12" d="M181.1,281.8v5h-20.9c-.6-.7-2-.5-.8-1.5.8-.7,12-.4,15.7-.6,0,0,3.8-.3,5-1.7.4-.4.7-.9,1.1-1.3h-.1Z"/>
      </g>
      <g>
        <path class="cls-6" d="M185,318.2c0,1.1,0,2.8-1.1,3.6-.5.5-1.5.7-2.1.8-6,.8-12.1.9-18,0-1.5-.1-3.3-.9-3.3-2.4s0-.5-.2-.6h20.9v-5c.2-.3.5-.5.8-.6.9-.4,2.1.3,2.5,1.2.4.9.5,2,.5,3h0Z"/>
        <path class="cls-12" d="M181,314.4v5h-20.9c-.6-.7-2-.5-.8-1.5.8-.7,12-.4,15.7-.6,0,0,3.8-.3,5-1.7.4-.4.7-.9,1.1-1.3h-.1Z"/>
      </g>
      <path class="cls-12" d="M393.6,330.2c-1.3,1.9-4.9,3.7-7.8,4.5-8.2,2.4-13.8,4.6-22.1,6.6-14.8,3.7-33.1,6.1-47.7,5.8-47.7-.9-95.9-1.7-142.5-5.2-4-.3-23.3-3.2-36.2-9.4h6.8c.3,0,.7,0,1-.1,1-.2,1.9-.8,2.6-1.5h0c.7.8,1.7,1.4,2.7,1.6h39.1c.1,0,.3,0,.4-.1h.2c1.6-.6,2.9-2,3.2-3.7l.2-1.8c2.5.3,5.7.8,8.2,1l11,.5c1.5-.1,3.4-.2,4.9-.4,2.5-.4,4.2-.8,6.6-1.7,5.6-1.7,10.8-3.7,15.5-7.4.8-.7,1.6-1.3,2.4-2.1h0c1,.7,2.2,1.4,3.4,2.1,4.5,2.8,9.4,5.4,14.3,7.7,6.6,3.2,13.6,5.6,20.8,7.3,2.3.5,4.6,1.1,6.9,1.5h0c1.5.3,3.1.6,4.6.8,2.4.3,4.7.6,7.1.8,3.6.2,7.3.1,10.8-.6,2.5-.5,4.9-1.2,7.3-2.3.4-.2.8-.4,1.1-.6h0c.6-.3,1.2-.7,1.9-1.1h0c.4.3,1,.4,1.5.5h10.3c2.2-.5,3.8-2.4,3.8-4.7v-1.3h0c.5.3,1,.4,1.7.5,1.3.4,2.6.8,3.9,1.1h0c.2,0,.4,0,.6.1,1.2.3,2.5.4,3.7.5,3.2.3,6.4,0,9.5-.1,3.7-.3,7.4-.8,11-2,2.8-.9,6-2.6,6.9-5.7.5-1.7.2-3.9-.4-5.7h12.2c2.2.7,5.4,1.9,5.4,1.9,4.2,2.3,5,9.4,2.5,13l.7-.3h0Z"/>
      <line class="cls-2" x1="196.3" y1="357" x2="194.3" y2="356.2"/>
      <path class="cls-6" d="M148.9,113l-16.7-1.2-.3.7s-.1.4-.2.8c0,.3-.2.7-.2.7l-16.8,55.2v.5h1.5l3.8.4h.7l1.3-.3s0-5.7.6-6.7c.4-.6,4-1.1,7.1-2.6h-.7c-1.3-.3-2-2.1-1.5-4.1.4-2,1.8-3.3,3.1-3s2,2.1,1.5,4.1c-.2,1-.7,1.9-1.3,2.5,1.1-.7,2.1-1.5,2.7-2.6,2.4-4.4,4.3-7.9,4.3-7.9,0,0-.1,0-.3-.1.3-.5.4-.8.4-.8h.1l1.2.5h.4c0,.1.7.4.7.4l.3-.9,9.3-34.4v-.3l.3-.8h-1.3ZM135.8,146.3l-7.3-.3,7.4-25.3h7.7l-7.8,25.6h0Z"/>
      <path class="cls-12" d="M355.6,202s-.6.9-1.3,1.7c-.6.8-1.9,4.1-2.6,6.2-1.2,2.9-2.1,5.8-2.8,8.9l.7,1.3h0l1.9-7.1,1.9-1.9,3.4,2.1h0c.5-2.2,1.1-4.2,1.5-6.2,0-1.1.5-4.4-2.7-5h0Z"/>
      <path class="cls-7" d="M211.8,296"/>
      <path class="cls-17" d="M369.4,317c-6.2,4.5-13.9,2.9-19.5-.5-1.1-.7-2.1-1.5-3-2.3-4.8-4-4.5-7.6-4.3-8.1,2,.9,4.1,1.3,6.4,2.1,7.3,2.3,15.6,2,19.5,5.8s.9,1.2,1.3,2-.2.7-.4.9h0Z"/>
      <rect class="cls-11" x="124.6" y="250" width="217.1" height="17.2" rx="2.9" ry="2.9"/>
      <path class="cls-4" d="M342.6,253.8v8.9c0,2.9-7.9,4.5-7.9,4.5h0l-21.2.4-121.8-.5h-63c-2.3-.6-4-3.5-4-4.5v-4.1h204.7c4,0,6.4-4.5,6.9-8.1,2.3-.1,5.7.5,6.4,3.3h0Z"/>
      <path class="cls-6" d="M191.8,328.8l-.6,1.1c-.8,1.5-2.3,2.4-4,2.3l-6.9-.2,2.1-1.9c.7-.7,1.2-1.3,1.7-2,.4-.5.7-1.1.9-1.6.3-.5.5-1.1.7-1.6.4-1.2.5-2.4.5-3.6v-44.8c0-2.6-2.1-4.9-4.9-4.9l-33.4.4c0,8.2.5,58.4.2,58.4s-2.9,1.7-2.9,1.7h-11.4c3.3-2.3,6.4-5.5,6.6-9.5v-22.6c0-.3,0,.1,0-.7v-16.2c-.3-4.6-.4-7.9-.8-8.9-.8-2-4.5-2.1-7-2h-1.5l-.6-5-1.8-.2h63v61.7h.1Z"/>
      <path class="cls-6" d="M334.7,267.3l-.2,62.5c-.6,1.4-1.7,2.5-5.2,2.5s-8.9-.6-8.9-.6c0,0,6.9-7.6,7.5-9.3.1-.5.4-1.1.5-1.6.1-.1.1-.3.1-.4.4-1.5.7-2.9.8-4.4.1-.7.1-1.5.1-2.3v-4c.1-2.9.1-6,.1-8.9v-20.4c-.1-.8-.3-1.7-.4-2.5-.3-.7-.4-1.3-.7-2-.3-.5-.5-1.1-.8-1.6-1.1-1.6-2.6-1.9-4.6-1.9h-4.1s0-2.1-.3-5.1l16-.2v.2h.1Z"/>
      <path class="cls-5" d="M355.6,221.5v2c-1.5-.7-2.9-1.6-4.4-2.4-.4-.1-.8-.4-1.2-.7-.1,0-.4-.2-.5-.3l1.9-7.1,1.9-1.9,3.4,2.1c-.6,2.8-1.2,5.5-1.2,8.2h.1Z"/>
      <g>
        <path class="cls-3" d="M188.7,333.5c.3,0,.6,0,.8-.2-.3,0-.6.1-.8.2ZM188.3,333.5h-.3.7-.4Z"/>
        <path class="cls-3" d="M454.7,315.5c-22.6-1.2-45.3-1.5-68.1-1.5h-14.8c-.5-.7-1.1-1.3-1.7-1.9-3-2.4-7.2-3.2-10.9-3.8-4.6-.8-9.1-1.9-13.4-3.7-3.7-1.6-7-3.8-10.1-6.4v-2.9c.1,0,.2-.2.3-.3,2.4-2.8,4.6-5.7,6.5-9,3.3-6,5.4-13,6.9-19.6,1.5-6.9,2-13.9,1.7-20.8,0-3.6-.7-7.2-.8-10.6,0-3.3,0-6.6.3-9.9,0-1.1.3-2,.4-3l11.1,7c.7.5,1.5.7,2.1.7,1.3,0,2.6-.7,3.4-1.9l15.1-24c1.1-1.9.5-4.4-1.3-5.6l-20-11.9c-.9-.5-2-.8-3-.5-1.1,0-2,.8-2.5,1.7l-7.7,12.1c-7.7,0-15,6-18.8,12.8-2.1,3.7-3.4,7.8-5,11.8,0,.1,0,.2-.1.3v-5.1c0-2.9-1.4-5.4-5.2-5.4h-17.8c-.5-3.3-1.1-6.5-1.6-9.6-.4-2.4-.7-4.9-.9-7.3,2.6-1.3,5.2-3.2,6.6-5.7.8-1.5,1.2-3.2,1.5-4.8,1.3-1.2,2.4-2.8,3-4.2,1.3-2.5,2.1-5.3,2.4-8.2.5-5.3-.8-11.5-4.9-15.2-2-1.7-4.2-2.6-6.6-2.8-1.3-1.9-3-3.3-5.3-3.8-1.3-.3-2.9-.3-4.2-.1-.4-6.2-1.7-12.2-4.2-17.9-4.9-11.4-13.8-20.9-25-26.2-10.3-4.9-21.7-5.8-32.8-3.2-12.4,2.9-23.2,10.5-30.7,20.8-4.2,5.8-6.9,12.3-8.2,19.5-.4,2-.8,4.2-1.1,6.4-1.2-.6-2.4-.9-3.6-.9s-2.2.2-3.2.8c-2.1.9-3.7,2.5-5,4.4-1.1,1.6-2,3.3-2.9,5-1.1,0-2,.3-2.9.7-2.9,1.2-5.3,4-6.5,6.9-2,4.4-1.1,10.5,1.5,14.4.5.8,1.2,1.6,2,2.3,0,2.9.4,6,2,8.3,1.1,1.6,2.5,2.8,4.4,3.2.9.3,2,.3,3,0h.5c-.8,2.5-1.6,5-2.6,7.4,0,0,0,.2-.1.3h-32.3v-.3c-.1-3.3.5-6.6.9-9.9,1.1-8.5,2.5-19.5,2.5-25.7s-.5-13.4-4.2-18.4l9.7-36.2-32.2-29-.4-.3-2.6,7.9-8.2-9.7-20.1,58.4,25.8,30.3,6.2.6v.4c0,3,0,5.8-.7,8.7-.9,3.8-2.1,7.8-3.3,11.7-1.9,6.1-4.1,11.9-6.2,17.9-3.6,9.8-6.8,19.5-7,29.9-.3,13.6,2.6,28.5,11.3,39.5,3.7,4.8,8.1,9,12.7,12.8.9.8,1.9,1.6,2.9,2.4h.1v19.5h-5.7c-31.4.4-62.8.1-94,2.5-3.4.3-6.9.5-10.5.8-.3,0-.4.2-.4.4s.1.4.4.4c30.9-1.5,61.8-1.5,92.7-1.9,5.9,0,11.6-.3,17.5-.3v11.5c0,2.6,2.1,4.8,4.8,4.8h8.5c.3,0,.7,0,1-.1,1-.2,1.9-.8,2.6-1.5.7.8,1.7,1.3,2.7,1.5h38.4c.3,0,.5,0,.8-.1.2,0,.3,0,.5-.1h.2c1.6-.6,2.9-2,3.2-3.7,2.5.3,4.9.5,7.4.7h11.5c1.5-.1,3.1-.3,4.6-.5,2.5-.4,5-1,7.3-1.9,5.6-1.7,10.9-4.4,15.5-8.1.8-.7,1.6-1.3,2.4-2.1h0c1.1.6,2.3,1.4,3.4,2.1,4.5,2.8,9.4,5.4,14.3,7.7,6.6,3.2,13.6,5.6,20.8,7.3,2.3.5,4.6,1,6.9,1.5h0c1.5.3,3.1.6,4.6.8,2.4.3,4.7.6,7.1.8,3.6.2,7.3.1,10.8-.6,2.5-.5,5-1.2,7.3-2.3.4-.2.8-.4,1.1-.6h0c.4-.2.8-.5,1.2-.7-.4.3-.8.5-1.2.7.6-.3,1.3-.7,1.9-1.1.4.2,1,.4,1.5.5h10.3c2.2-.4,3.8-2.3,3.8-4.7v-1.2c.3.1.7.2,1.1.3,1.5.5,3,.9,4.6,1.2.2,0,.4,0,.6.1,1.2.3,2.5.4,3.7.5,3.2.3,6.4,0,9.5-.1,3.7-.3,7.4-.8,11-2,2.8-.9,6-2.6,6.9-5.7.5-1.7.2-3.9-.4-5.7h12.2c21.1-.3,42.1-.4,63.2,0,2.1,0,4.4,0,6.5.1.7,0,.7-.9,0-.9h-.2,0ZM357.6,188.9c.3-.4.7-.8,1.2-.8s.9,0,1.3.3l19.9,12.4c.8.5,1.1,1.7.5,2.5l-15,24c-.5.8-1.7,1.1-2.5.5l-7.7-4.9-4.2-2.6c.7-3,1.5-6.1,2.5-9,.9-2.5,1.9-4.9,3-7.3.3-.7,0-1.3-.5-1.7,0,0-.3-.1-.4-.3-.5-.4-1.1-.7-1.7-.9-1.2-.5-2.3-.9-3.4-1.1l7-11.1h0ZM324.3,245.7v-15.6c0-.1,0-.2.1-.3.3-.7.7-1.3.9-2,1.3-2.9,2.4-6,3.7-8.9,2.1-5.3,5-10.1,9.7-13.5,2.5-1.9,5.3-3,8.1-3.3h2.6c1.2,0,2.4.4,3.4.9h.1c.4.1.7.3,1.1.5-.9,2-1.9,4.1-2.6,6.2-1.2,2.9-2.1,5.8-2.8,8.9,0,.4-.1.8-.3,1.2,0,.4-.1.8-.3,1.2v.3c-1.2,6.6-1.3,13.2-.8,19.9.2,2.2.3,4.4.4,6.6h0c.2,8.2-.7,16.5-2.9,24.3-.9,3.4-2.3,6.8-3.8,9.9-1.5,2.9-3.2,5.6-5.2,8.1v-22.1h1.9c2.8,0,5.2-2.3,5.2-5.2v-8.9c0-2.8-2.3-5.2-5.2-5.2h-14.5c.7-.9,1.1-2,1.1-3.2v.2h0ZM299.2,216.9c.4-.3.9-.4,1.5-.4h18.4c1.7,0,3,1.3,3,3v26.1c0,1.7-1.3,3-3,3h-18.4c-1.7,0-3-1.3-3-3v-26.5c0-.3,0-.6.3-.9,0-.2.2-.4.3-.6.2-.3.6-.6,1-.8h0ZM308.2,180.7c-.3.8-.7,1.5-1.2,2.1v-.3c0-2,0-4-.1-5.8-.3-3.3-.8-6.5-1.7-9.5-.5-1.9-1.2-3.7-1.9-5.6-.5-1.1-1.1-2.3-1.6-3.4,8.5,2.8,9.9,15,6.5,22.5h0ZM291.1,154.8c1.2-.1,2.5,0,3.6,0,1.7.4,3,1.6,4.1,3,1.1,1.6,1.9,3.4,2.5,5.2,1.6,4.2,2.5,8.6,2.8,13.1v6.8c0,1.2-.1,2.4-.3,3.4,0,0-.5,1.8-.7,2.6-.3.8-.7,1.5-1.2,2-.9,1.3-2.3,2.3-3.7,3-.3-2.8-1.2-8.2-1.2-8.2-.8-6-2-11.9-3.6-17.7-.7-2.5-1.5-5.2-2.4-7.7v-5.6h.1ZM192.2,148.1c1.2-5.8,2.9-11.4,6.1-16.4,6.5-10.5,16-18.5,27.8-22.2,10.2-3.2,21.1-3.3,31.1.4,10.7,4,19.6,12.1,25,22,3.2,5.7,4.8,11.7,5.7,18,0,.4,0,.8.1,1.2v1.2c-2.1-4.8-4.8-9.3-8.1-13.5h-.1c-6.2-8.2-14.7-14.3-24.5-17.3-11.3-3.4-23.8-2.9-35,.7-9.3,3-17.1,8.7-22.1,17.2-2.4,4.1-4.6,8.3-6.5,12.7-.3.4-.4.9-.5,1.3.3-1.7.5-3.4.9-5.2h0ZM168.3,182.2c-.3-.4-.5-.9-.8-1.5-1.1-2.4-1.6-5-1.5-7.5,0-3.3,2-6.4,4.5-8.3.8-.5,1.6-.9,2.5-1.2-.5,1.3-1.1,2.8-1.6,4.1-1.6,4.6-2.8,9.5-3.2,14.4h.1ZM175.2,194.5c-1-.4-1.9-1-2.6-1.9-1.2-1.7-1.7-4.5-1.9-6-.1-1.1,0-1.9,0-2.1h0v-1.3c.3-6.6,4.2-18.1,5-19.9.8-1.7,1.7-3.3,2-3.7.8-1.5,1.7-2.8,2.8-4s2.8-2.1,4.5-2.1,2.3.5,3.4,1.2v4.6h.1c-.3.7-.4,1.3-.7,1.9-1.5,4.1-2.8,8.2-4,12.3-2,7-3.4,14.3-5.6,21.5-1.1,0-2.3-.1-3.3-.5h.3ZM177.5,204.2c1.1-2.8,3.2-9.5,3.2-9.5.9-3.2,1.7-6.4,2.5-9.5,1.7-6.6,3.3-13.4,5.6-19.9,0-.2.3-.9.5-1.7.3-.8.6-1.5.6-1.9.1-.6,1.3-3.5,2.1-5.3h0c.3-.6,2.9-6.6,4.2-9.4.1-.4.4-.7.5-1.1,2.5-4.6,5.2-9,9-12.7,7.3-6.9,17.3-9.8,27.1-10.7,1.5,0,3-.2,4.6-.2h1c9.5,0,18.8,2.5,26.9,7.8,8.1,5.4,14,13.4,18.3,22.1.4.8.8,1.6,1.2,2.5.3.5.4,1.1.7,1.6,0,.1.1.4.3.5.8,2,1.6,4,2.3,6,.3,1.1.7,2.1.9,3,0,.4.3.9.4,1.3,1.6,6.1,2.8,12.2,3.6,18.4.4,3.6.8,7.2,1.2,10.7,0,.5.1,1.2.3,1.7v1.1c.3,1.6.4,3.2.7,4.9.5,3.8,1.2,7.7,1.9,11.4v.6c-1,1-1.6,2.3-1.6,3.8v1.7h-1.2c-3.7,0-6.8,3-6.8,6.8v8.9c0,3.7,3,6.8,6.8,6.8h1.2v2c0,1.2.4,2.3,1.1,3.2h-12.4v-.5c0-5.6-1.6-9.7-4.9-11.8h-.1c-2.8-1.5-3.7-1.6-6.2-1.7-4.5-.3-9.4,1.6-13.1,4.9-2.9,2.6-4.8,5.8-5,9.1h-32l3.8-8.3h-27.5l-12.1-32.2c-.9-2.4-3.2-4-5.7-4h-3.7s0-.2.2-.3h-.4ZM294.3,227.3c-1.5,0-2.6,1.2-2.6,2.6v6c0,1.5,1.2,2.6,2.6,2.6h1.1v3h-1.3c-1.7,0-3.2-.9-4-2.4-.3-.7-.5-1.3-.5-2.1v-8.9c0-2.4,1.9-4.4,4.2-4.5h1.6v3.6h-1.1ZM295.4,229.3v7h-.9c-.3,0-.5-.3-.5-.5v-6c0-.3.3-.5.5-.5h.9ZM267.3,239.2c-2.4.7-4.2,2.5-5.6,4.5-.8,1.3-1.5,2.9-1.6,4.5h-3.2c.4-2.5,1.9-4.8,4.1-6.9,3-2.8,7-4.4,10.7-4.4h.8c.9,0,1.7,0,2.4.3-3.3,1.2-5.3,3.3-6.5,5.6,0,.1-.1.3-.3.4l-.3.8c-.7,1.5-.9,2.9-.9,4.2h-5.4c.2-1.3,1-2.5,1.7-3.6,1.2-1.9,2.9-3.2,4.4-4.8.3-.3,0-.8-.4-.7h0ZM269.2,247.2h0v-.4h0v-.4c.8-2.8,2.9-6.8,8.9-7.5h0c2.3,1.7,3.4,4.9,3.4,9.3h-12.3v-.9h0ZM222.7,242.8l-2.8,6h-75.1l-3.8-6.1h81.7ZM192.3,240.6l-11.2-31.4c-.4-.9-.8-1.7-1.5-2.4h1.3c1.6,0,3,1.1,3.6,2.5l11.7,31.3h-4,0ZM175.3,206.8c.4,0,.7,0,1,.2.1,0,.2.1.3.2,1.1.5,2,1.5,2.4,2.6l8.2,23,2.8,7.7h-50.1l-11.5-30.9c-.3-.7,0-1.5.3-2,.4-.5,1.1-.9,1.9-.9h44.8,0ZM120.4,88.7l26.8,24.1-14.3-1.1-14.4-17.1,2-6h0ZM91.3,141.1l18.4-53.5,21.4,25.4-16.8,55.4-23-27.2h0ZM120.3,170.4l-3.8-.4h-.3l17-55.8h.3l15.6,1.1-8.7,32.6s-.2-.2-.3-.2c-.4-.4-.8-.7-1.2-.9-.8-.5-1.9,0-2.1.9-.9,2.8-2,5.5-3.4,8-.2-1.6-1.2-2.9-2.5-3.3-1.1-.3-2.1,0-3,.8-.8.7-1.3,1.9-1.7,2.9s-.4,2.3,0,3.3c.2.5.5,1,.8,1.4-2.2.9-4.3,1.6-5.3,3.9-.8,1.6-1.1,3.2-1.1,4.9v.8h-.3ZM131.3,156.2c0,.3,0,.7-.2,1.1-.3.7-.7,1.3-1.1,1.7-.3.4-.7.4-1.1.4-.5-.1-.8-.5-.8-.8,0-.7-.3-1.3,0-2.1.3-.7.7-1.3,1.1-1.7s.4-.4.8-.4h.3c.6.2,1,.9,1,1.8ZM130.2,292.8c-.1,0-.2-.1-.3-.2s-.3-.3-.3-.3c-.1-.1-.4-.3-.7-.5-4-3.3-7.7-7.2-11-11.1-8.6-10.3-11.9-24.4-11.9-37.5s2.6-19.9,6.2-29.4c2-5.4,4.1-10.9,6-16.4,1.2-3.4,2.3-7,3.2-10.5.9-3.3,2-6.6,2-10.1v-9.2c.3-1.1.5-2.3,1.6-2.9s2.5-1.1,3.7-1.6c2.6-1.2,4.8-2.6,6.4-5.2,1.5-2.3,2.5-4.9,3.4-7.4l.3.3c.4.4.7.7.9,1.1.4.4.7.9.9,1.3,2.5,4.2,2.9,9.9,2.9,14.4,0,8.5-1.2,17-2.3,25.3-.4,3.4-1.1,7-1.1,10.6v.8h-9.8c-1.5,0-2.8.7-3.6,1.9-.8,1.2-1.1,2.8-.5,4.1l11.8,31.7,4,6.4.4.5h-13.8c-2.8,0-5.2,2.3-5.2,5.2v8.9c0,2.8,2.3,5.2,5.2,5.2h1.5v24.7h.1ZM128.8,265.9c-1.7,0-3-1.3-3-3v-8.9c0-1.7,1.3-3,3-3h208.8c1.7,0,3,1.3,3,3v8.9c0,1.7-1.3,3-3,3h-208.8ZM317.8,268.1v3.8c-.6-1.2-1.3-2.5-1.9-3.8h2-.1ZM190.8,299.4h-42.4v-31.3h42.4v31.3h0ZM143.6,331.4h-9c-1.2-.3-2.1-1.3-2.1-2.6v-60.7h10.7c0,.1,0,.3-.1.4-.9,2.3-2.1,4.9-2,7.4,0,.2,0,.3.2.4h0c0,.4.3.7.4.5.7-.7,1.3-1.3,1.9-2.1.5-.8.9-1.6,1.3-2.4.2-.3.1-.5,0-.6.1-.3.2-.5.3-.8.4-.8.7-1.6,1.1-2.5v61.4h0c-.1.4-.4.6-.7.9-.1.1-.3.3-.5.4-.4.3-.8.3-1.3.3h-.2,0ZM188,331.4h-37.1c-.4,0-.8,0-1.1-.3-.4-.3-.8-.5-1.1-.9s-.4-.9-.4-1.5v-27.3h42.4v27.3c0,1.1-1.5,2.6-2.8,2.6h.1ZM317.8,330.7c-1.5.8-9.8,3.7-15.3,3.7s-11.8-.9-17.6-2.1c-6.8-1.5-13.4-3.4-19.7-6.1-5.7-2.4-11-5.3-16.3-8.5-.5-.3-1.1-.5-1.5-.8-1.2-.7-2.3-1.3-3.3-2h0c0-.1-.1-.1-.1-.1.1,0,.3-.3.3-.3.9-1.1,1.7-2.4,2.4-3.7.1-.1.2-.5.2-.5.2-.8-1-1.2-1.3-.7l-.5.7c-.1.3-.4.5-.5.8-.7,1.1-1.5,2.1-2.4,3,0,.1-.2.2-.3.3h0c-.2.1-.3.4-.6.6-.1.1-.3.3-.4.4h-.1c-.1.2-.2.3-.3.4-.3.3-.6.6-1,.9-.1.1-.4.3-.5.4-3.8,3.2-8.3,5.4-13,7.2-4.1,1.5-8.6,2.6-12.8,2.9-3.4.3-6.9.1-10.2,0-3.4-.1-6.6-.5-10.1-.9v-22.2c.4-.3.8-.6,1.2-.9,3.8-2.9,7.5-6.5,9.3-10.7h0c.3-.8-.7-1.2-1.1-.8-2.1,1.9-4.1,4.1-6.2,6-1.1.9-2.1,1.8-3.2,2.6v-32.3h118.1c.8,1.7,1.7,3.6,2.6,5.3,1.2,2.4,2.4,4.8,3.7,7.2.1.3.3.6.5.9v30.7c-3.4-1.1-6.9-2-10.2-3.4-5.2-2.1-10.2-4.8-14.6-8.2-1.9-1.5-3.7-3-5.2-4.9-.4-.5-.8-1.2-1.2-1.7-.8-1.3-1.5-2.8-1.9-4.4,0-.4-.3-.6-.6-.6s-.7.2-.8.6v.3c-.1.8,0,1.5.1,2.3,0,.2,0,.4.1.5.8,2.6,2.6,4.9,4.5,6.9,3.3,3.3,7.3,6,11.4,8.2,4,2.1,8.1,4.1,12.4,5.6,1.5.4,6.7,1.4,10.2,3.6.5.4,1.2.9,1.6,1.3s.7.8.9,1.1c0,0,.1.1.1.2.7,1.2.7,2.3.4,3.3-.7,2.5-3.4,5.8-7.3,7.9h.1ZM331,331.4h-8.5c2.8-2.1,5-4.6,5.7-7.8.2-1.2.1-2.4.1-2.4v-.4c-.2-1.6-1-2.9-1.9-4-.7-.7-1.3-1.2-2-1.7-.3-.3-.5-.4-.8-.5-1.1-.7-2.4-1.3-3.7-1.7v-44.8h13.8v60.7c0,1.5-1.2,2.6-2.6,2.6h-.1ZM365.4,324.4c-3.3,1.2-6.9,1.7-10.3,2-2.9.3-6,.4-9,.4s-4.8-.4-7.1-1c-.2,0-.3,0-.5-.1-.2,0-.3,0-.5-.1-.8-.2-1.5-.4-2.3-.7v-21.3c.8.5,1.5,1.1,2.4,1.6,1.3.8,2.6,1.6,4.1,2.4,2.8,1.3,5.7,2.4,8.6,3.2,4.1,1.1,8.3,1.5,12.4,2.5.7.2,1.5.5,2.1.8h0s.1,0,.2.1c1.1.5,2,1.2,2.7,2.1h.1c.1.4.3.5.4.8.3.7.5,1.3.7,2.1.3,2.8-1.5,4.2-4.1,5.2h0Z"/>
        <path class="cls-3" d="M239.9,206.4c10.2,0,18.4-9.7,18.4-21.7s-8.2-21.7-18.4-21.7-18.4,9.8-18.4,21.7,8.3,21.7,18.4,21.7ZM239.9,165.2c8.9,0,16.2,8.7,16.2,19.5s-7.3,19.5-16.2,19.5-16.2-8.7-16.2-19.5,7.2-19.5,16.2-19.5h0Z"/>
        <ellipse class="cls-3" cx="239.9" cy="184.7" rx="10.1" ry="12.1"/>
        <path class="cls-3" d="M159.1,288.1h20.8c1.5,0,2.5-1.2,2.5-2.5v-3.7c0-1.5-1.2-2.5-2.5-2.5h-20.8c-1.5,0-2.5,1.2-2.5,2.5v3.7c0,1.5,1.2,2.5,2.5,2.5ZM158.8,281.8c0-.1.3-.3.3-.3h20.8c.3,0,.3.1.3.3v3.7c0,.1-.3.3-.3.3h-20.8c-.3,0-.3-.1-.3-.3v-3.7Z"/>
        <path class="cls-3" d="M179.9,311.7h-20.8c-1.5,0-2.5,1.2-2.5,2.5v3.7c0,1.5,1.2,2.5,2.5,2.5h20.8c1.5,0,2.5-1.2,2.5-2.5v-3.7c0-1.5-1.2-2.5-2.5-2.5ZM180.2,314.5v3.4c0,.1-.3.3-.3.3h-20.8c-.3,0-.3-.1-.3-.3v-3.7c0-.1.3-.3.3-.3h20.8c.3,0,.3.1.3.3v.3h0Z"/>
        <polygon class="cls-3" points="136.7 147.5 136.7 147.3 136.6 147.3 136.6 147.5 136.7 147.5"/>
        <path class="cls-3" d="M144.3,119.9l-9.1-.3-8.1,27.4,9.6.3,7.6-27.4ZM130,145l6.9-23h4.8l-6.5,23h-5.2Z"/>
        <path class="cls-3" d="M356.4,358.4c-1.5,0-1.5,2.3,0,2.3s1.5-2.3,0-2.3Z"/>
        <path class="cls-3" d="M363.7,356.6h-.1c.2.1.2,0,.1,0Z"/>
        <path class="cls-3" d="M365.3,354.7s-.3-.1-.4-.3h-.7c-.1.1-.2.2-.4.3-.1,0-.3.1-.4.4v1.2s.2.2.2.3h.2c0,.1.1.1.3.1h.4c.3,0,.4,0,.7-.1h.3c.1-.3.3-.5.3-.7v-.5c0-.1,0-.3-.1-.4,0-.1-.1-.3-.3-.3h-.1Z"/>
        <path class="cls-3" d="M361.2,349.3c-1.2,0-1.2,1.9,0,1.9s1.2-1.9,0-1.9Z"/>
        <path class="cls-3" d="M114.7,346.8c-1.3,0-1.3,2,0,2s1.3-2,0-2Z"/>
        <path class="cls-3" d="M111.6,354.5h-1.3c-.3.3,0,.3,0,.4v.5c0,.1,0,.3.3.4,0,.3.3.3.4.3l-.3-.4h1.2v-.5h0v-.2h0c0-.1,0-.3-.3-.4h0Z"/>
        <path class="cls-3" d="M121.2,351.4c0-.3-.3-.3-.4-.3h-.4s-.3,0-.3.1v.9c0,.1,0,.3.3.4,0,.3.3.3.4.3h.4s.3,0,.3-.1v-.9c0-.1,0-.3-.3-.4Z"/>
        <path class="cls-3" d="M123.1,356.1c-1.1,0-1.1,1.6,0,1.6s1.1-1.6,0-1.6Z"/>
        <path class="cls-3" d="M144.5,279.6c-.5,1-1.4,2-1.9,3,.2.2,2.5-3,1.9-3Z"/>
        <path class="cls-3" d="M144.3,284.1c-.6.5-1.3,2.3-1.2,3.3,1.1,1.8,2.3-4.4,1.2-3.3Z"/>
        <path class="cls-3" d="M144.1,289.6h0c0,.5-.3,1.1-.4,1.7-.1.7-.3,1.2-.5,1.9,0,.1,0,.3.3,0,.3-.5.7-1.2.8-1.7s.3-1.2.3-1.9-.4-.3-.4,0h-.1Z"/>
        <path class="cls-3" d="M329,279c.4-.3.5-.8.7-1.2.1-.5.4-.9.5-1.5.4-.9.7-1.9,1.1-2.8.3-.5-.7-.9-.9-.4h0c-.5.9-.9,1.7-1.3,2.8-.1.4-.4.9-.5,1.5,0,.5-.3,1.1,0,1.5,0,.1.3.3.5.1h-.1Z"/>
        <path class="cls-3" d="M330.1,280.3c-.3.4-.4.8-.5,1.2,0,.1-.1.4-.3.7-.1.3,0,.4,0,.7s.4.4.5.1c0-.1.3-.4.4-.5,0-.1.1-.4.3-.5.3-.4.4-.8.5-1.2.4-.8.8-1.5,1.2-2.3s-.4-.9-.8-.4h0c-.4.8-.9,1.5-1.3,2.3h0Z"/>
        <path class="cls-3" d="M331,286.3c-.3.4-.4.8-.5,1.2s-.4.8-.4,1.2.3.5.5.3c.3-.4.5-.8.8-1.2s.4-.8.7-1.2c.4-.8.8-1.7,1.1-2.6.1-.5-.7-.8-.8-.3l-.3.3c-.3.8-.7,1.6-1.1,2.4h0Z"/>
        <path class="cls-3" d="M332.1,290.5v.3h.1c-.3.7-.7,1.2-1.1,1.9-.1.3-.4.5-.5.8s-.3.7-.4.9c0,.1.1.3.3,0,.1-.3.4-.5.5-.8s.4-.7.5-.9c.3-.7.7-1.2.9-1.9,0-.3-.3-.5-.4-.3h.1Z"/>
        <path class="cls-3" d="M298.8,181c.4-.9.9-2,1.1-2.9.1-.9.3-2.1,0-3.2,0-.4-.7-.4-.5,0h.1c0,1.1,0,2.1-.3,3,0,.5-.1,1.1-.3,1.5-.1.4-.3,1.1-.4,1.6,0,.1.1.3.3,0h0Z"/>
        <path class="cls-3" d="M298.7,187.7c.4-.4.8-.9,1.1-1.5s.4-1.1.7-1.6c.4-1.1.7-2.1,1.1-3.3,0-.4-.5-.7-.7-.3h-.1c-.5,1.2-.9,2.3-1.3,3.3-.1.5-.4,1.1-.7,1.5-.3.5-.4,1.1-.5,1.6,0,.3.3.5.5.3h-.1Z"/>
        <path class="cls-3" d="M300.9,186.5c-.1.7-.4,1.2-.7,1.7-.1.3-.3.7-.4.9-.1.3-.1.7-.1,1.1s.5.5.7.1c.1-.3.3-.5.4-.8s.3-.7.4-.9c.3-.7.4-1.2.5-1.9,0-.3,0-.5-.3-.5s-.5,0-.5.3h0Z"/>
        <path class="cls-3" d="M360.8,212.1c4.6,2.5,14.7-12.9,4.5-9.8-4.9-9.5-9.2,5.4-4.5,9.8ZM361.6,202c.6-1.3,1.7-.4,2.3.9s.4.6.7.9h.4c8.7-2.8,1.5,4.9-2,6.3-1.1-1.7-2.8-4.7-1.3-8.1h-.1Z"/>
        <path class="cls-3" d="M341.3,319.2c-.4,0-.4.7,0,.7s.4-.7,0-.7Z"/>
        <path class="cls-3" d="M344.5,318.4h-.3c-.1,0-.3.3-.3.3-.3.1-.3.5.1.8h.4c1.1.5,1.1-1.3,0-1.1h0Z"/>
        <path class="cls-3" d="M347,322.4c-.5,0-.5.8,0,.8s.5-.8,0-.8Z"/>
        <path class="cls-3" d="M197,246.8c2.8,2.2,3,1.1.8-1.2-1.7-1.7-3.3-.7-.8,1.2Z"/>
        <path class="cls-3" d="M201.5,247.1c2.7,1.3,2.3-.7,0-1.2-1.1-1-1.7.2,0,1.2Z"/>
        <path class="cls-3" d="M205.5,246.4h1.3s.1-.1,0-.3h-.5c-.3,0-.4,0-.7-.1,0,0-.3,0-.3.1s0,.3.1.3h0Z"/>
        <path class="cls-3" d="M209.8,246v.3h.1v-.3h-.1Z"/>
        <path class="cls-3" d="M111.7,158.9c-1.3,0-1.3,2.1,0,2.1s1.3-2.1,0-2.1Z"/>
        <path class="cls-3" d="M111.7,155.6c.7,0,.7-.9,0-.9s-.7.9,0,.9Z"/>
        <path class="cls-3" d="M115.1,155.2c-.7,0-.7.9,0,.9s.7-.9,0-.9Z"/>
        <path class="cls-3" d="M245.1,116.5c.4-.8.8-1.5,1.5-2,.9-1.1,2.3-2.3,3.8-2.1.3,0,.3-.3,0-.3-1.2,0-2.3.5-3.2,1.3-1.1.9-1.9,2-2.5,3.2-.3.5-.5,1.2-.5,1.7h.1c.3-.7.5-1.2.8-1.9h0Z"/>
        <path class="cls-3" d="M250.5,119c.5-1.6,2.4-3.4,4.4-4.2,4-3.9-7.4.6-4.4,4.2Z"/>
        <path class="cls-3" d="M255.3,120.1c0,.7,1.2,1.2,1.5.2.3-1.1.3-1.6,1.3-2.2,6.3-3.2-3.6-2.8-2.8,2h0Z"/>
        <path class="cls-3" d="M262.9,121.9c.3-1,1-2.2,1.9-3.2.5-4.8-5.3,4.5-1.9,3.2Z"/>
        <path class="cls-3" d="M267,124.4c.9-.8,4.3-6.3,1.2-4.9.4.9-4,4.7-1.2,4.9Z"/>
        <path class="cls-3" d="M110.8,234.4c0-.1-.3-.1-.3,0v.4h0v.7s.3.3.4.3.3,0,.3-.3v-.7c.3-.1,0-.3,0-.4h-.4Z"/>
        <path class="cls-3" d="M110.8,238.9c-.4,0-.4.7,0,.7s.4-.7,0-.7Z"/>
        <path class="cls-3" d="M114.6,234.9c-.5,0-.5.8,0,.8s.5-.8,0-.8Z"/>
        <path class="cls-3" d="M115.9,221.6c-.9,0-.9,1.5,0,1.5s.9-1.5,0-1.5Z"/>
        <path class="cls-3" d="M290.6,203.5h1.1v-.5h0v-.4c0-.1-.3-.1-.3-.1h-.8s-.1,0-.3.3v.3h0v.3s0,.3.3.3v-.2h0Z"/>
        <path class="cls-3" d="M288.8,208.1c.5,0,.5-.9,0-.9s-.5.9,0,.9Z"/>
        <path class="cls-3" d="M268,139.5c.5,0,.5-.9,0-.9s-.5.9,0,.9Z"/>
        <path class="cls-3" d="M286.5,205.2c.7,0,.7-1.1,0-1.1s-.7,1.1,0,1.1Z"/>
        <path class="cls-3" d="M306.2,278.6c.9,0,.9-1.5,0-1.5s-.9,1.5,0,1.5Z"/>
        <path class="cls-3" d="M309.4,275.3h-.1l.2.2v-.2h-.1Z"/>
        <path class="cls-3" d="M309.7,275.5h-.2.2Z"/>
        <polygon class="cls-3" points="199.1 313.3 199.1 313.2 198.6 313.2 198.6 313.3 198.6 313.9 198.6 314.1 199.2 314.1 199.2 313.9 199.2 313.8 199.2 313.7 199.2 313.5 199.2 313.4 199.1 313.4 199.1 313.3"/>
        <path class="cls-3" d="M258,320.4s.1-.3,0-.3-.1.3,0,.3Z"/>
        <path class="cls-3" d="M259.1,315.7c.1-.7-1.1-.6-1.6-.4v1.7c1.1.1,2.2,0,1.6-1.3h0Z"/>
        <path class="cls-3" d="M262.1,317.8c-.8,0-.8,1.2,0,1.2s.8-1.2,0-1.2Z"/>
        <path class="cls-3" d="M154.1,226.7c.4,1.3,1.6,2.1,2.9,2.1h6.4c.8,0,1.6-.4,2-1.1.3-.7.5-1.5.3-2.3l-.9-2.6c0-.3-.2-.5-.3-.7-.5-.9-1.5-1.4-2.6-1.4h-6.4c-.8,0-1.6.4-2,1.1-.3.7-.5,1.5-.3,2.3l.9,2.6h0ZM155.3,223.1h6.5c.4,0,.9.3.9.7l.3.9.6,1.7v.3h-6.5c-.4,0-.9-.3-.9-.7l-.9-2.6v-.3h0Z"/>
        <path class="cls-3" d="M240.5,223.6c18.2,0,33-17.4,33-38.7s-14.8-38.7-33-38.7-33,17.4-33,38.7,14.8,38.7,33,38.7ZM240.5,148.7c16.7,0,30.3,16.2,30.3,36.1s-13.6,36.1-30.3,36.1-30.3-16.2-30.3-36.1,13.6-36.1,30.3-36.1h0Z"/>
      </g>
      <ellipse id="reflet" class="cls-16" cx="245.5" cy="177.3" rx="4.5" ry="5.3"/>
    </g>
  </g>
  <circle class="cls-1" cx="237.8" cy="200.1" r="184.8"/>
</svg>